<svg width="27" height="21" viewBox="0 0 27 21" fill="none" xmlns="http://www.w3.org/2000/svg">
<path d="M26.3516 3.28125L25.3125 2.24219L15.6875 11.8672C14.4844 13.0703 12.4609 13.0703 11.2578 11.8672L1.63281 2.29688L0.59375 3.33594L7.75781 10.5L0.59375 17.6641L1.63281 18.7031L8.79688 11.5391L10.2188 12.9609C11.0938 13.8359 12.2422 14.3281 13.4453 14.3281C14.6484 14.3281 15.7969 13.8359 16.6719 12.9609L18.0938 11.5391L25.2578 18.7031L26.2969 17.6641L19.1328 10.5L26.3516 3.28125Z" fill="white"/>
<path d="M24.3281 20.5625H2.72656C1.46875 20.5625 0.429688 19.5234 0.429688 18.2656V2.84375C0.429688 1.58594 1.46875 0.546875 2.72656 0.546875H24.3281C25.5859 0.546875 26.625 1.58594 26.625 2.84375V18.2656C26.625 19.5234 25.5859 20.5625 24.3281 20.5625ZM2.67187 2.02344C2.23437 2.02344 1.90625 2.35156 1.90625 2.78906V18.2109C1.90625 18.6484 2.23437 18.9766 2.67187 18.9766H24.2734C24.7109 18.9766 25.0391 18.6484 25.0391 18.2109V2.78906C25.0391 2.35156 24.7109 2.02344 24.2734 2.02344H2.67187Z" fill="white"/>
</svg>
